<svg xmlns:xsi="http://www.w3.org/2001/XMLSchema-instance"
 xsi:noNamespaceSchemaLocation="logo.xsd" class="svg-standalone-icon" width="60px"
    viewBox="184.46915479021004 151.77451963066326 181.06169041957992 96.02306188996326">
    <g data-paper-data='{"fillRule":"evenodd","fillRuleOriginal":"evenodd","isIcon":true,"iconStyle":"standalone","selectedEffects":{"container":"","transformation":"","pattern":""},"bounds":{"x":184.46915479021004,"y":151.77451963066326,"width":181.06169041957992,"height":96.02306188996326},"iconType":"icon","rawIconId":"52bef367-2f60-4112-a6d1-5ec86cd74275","isDetailed":false,"suitableAsStandaloneIcon":true}'
        fill-rule="evenodd">
        <path style="fill: #E8FF00"
            d="M221.58113,238.06839l-11.24602,2.74618v6.98302h-16.81287c-4.99985,0 -9.05308,-4.0532 -9.05308,-9.05308v-77.9169c0,-4.99985 4.05324,-9.05308 9.05308,-9.05308h20.53977v8.87912l12.09605,1.50388zM249.63099,247.79758h18.49931l-20.46093,-61.38255l-7.84604,-24.51908l-0.26156,18.17682l-1.9615,57.79955l12.03073,2.94223zM278.70838,247.79758h17.60682v-6.85226l10.78841,-2.94232l-3.66157,-50.08419l-0.26156,-26.54586l-2.22297,9.02296zM339.66455,247.79758h16.81309c5.0003,0 9.0532,-4.0532 9.0532,-9.05308v-77.9169c0,-4.99985 -4.05291,-9.05308 -9.0532,-9.05308h-21.65158v8.87912l-12.22679,1.43849l6.80022,76.04165l10.26506,2.81154zM292.94555,151.77452h-33.4742l14.74401,48.69804l2.15769,13.20765l2.74609,-13.20765z"
            data-paper-data='{"isPathIcon":true}'></path>
    </g>
</svg>